<mxfile host="65bd71144e">
    <diagram id="zZiM5lEDfPUhspPy-8sA" name="Sayfa -1">
        <mxGraphModel dx="2327" dy="2325" grid="1" gridSize="22" guides="1" tooltips="1" connect="1" arrows="1" fold="1" page="1" pageScale="1" pageWidth="850" pageHeight="1400" background="#ffffff" math="0" shadow="0">
            <root>
                <mxCell id="0"/>
                <mxCell id="1" parent="0"/>
                <mxCell id="27" value="&lt;font style=&quot;font-size: 21px;&quot;&gt;BloodyMoon&lt;/font&gt;" style="swimlane;whiteSpace=wrap;html=1;fontStyle=1;horizontal=1;labelBorderColor=none;fontColor=#0d0c0c;fontSize=21;strokeWidth=6;" parent="1" vertex="1">
                    <mxGeometry x="-587.5" y="550" width="155" height="90" as="geometry"/>
                </mxCell>
                <mxCell id="34" value="&lt;font style=&quot;font-size: 21px;&quot;&gt;Sun&lt;/font&gt;" style="swimlane;whiteSpace=wrap;html=1;fontStyle=1;horizontal=1;labelBorderColor=none;fontColor=#0d0c0c;fontSize=21;strokeWidth=6;" parent="1" vertex="1">
                    <mxGeometry x="-800" y="550" width="150" height="90" as="geometry"/>
                </mxCell>
                <mxCell id="35" value="&lt;font style=&quot;font-size: 21px;&quot;&gt;Saturn&lt;/font&gt;" style="swimlane;whiteSpace=wrap;html=1;fontStyle=1;horizontal=1;labelBorderColor=none;fontColor=#0d0c0c;fontSize=21;strokeWidth=6;" parent="1" vertex="1">
                    <mxGeometry x="-340" y="550" width="150" height="90" as="geometry"/>
                </mxCell>
                <mxCell id="40" value="&lt;font style=&quot;font-size: 21px;&quot;&gt;Game&lt;/font&gt;" style="swimlane;whiteSpace=wrap;html=1;fontStyle=1;horizontal=1;labelBorderColor=none;fontColor=#0d0c0c;fontSize=21;strokeWidth=6;" parent="1" vertex="1">
                    <mxGeometry y="-426.24" width="212.5" height="244" as="geometry"/>
                </mxCell>
                <mxCell id="136" value="&amp;nbsp; +score&lt;br&gt;+size&lt;br&gt;&amp;nbsp;+color&lt;br&gt;&amp;nbsp; &amp;nbsp; +screen" style="text;html=1;align=center;verticalAlign=middle;resizable=0;points=[];autosize=1;strokeColor=none;fillColor=none;fontSize=20;" parent="40" vertex="1">
                    <mxGeometry x="-15.46" y="23" width="110" height="110" as="geometry"/>
                </mxCell>
                <mxCell id="174" value="&lt;span style=&quot;white-space: pre;&quot;&gt;&#9;&lt;/span&gt;&amp;nbsp; &amp;nbsp; +update_score()&lt;br&gt;&lt;span style=&quot;white-space: pre;&quot;&gt;&#9;&lt;/span&gt;&lt;span style=&quot;white-space-collapse: preserve;&quot;&gt;&amp;nbsp;    &lt;/span&gt;+update_health()&lt;br&gt;+pause()" style="text;html=1;align=center;verticalAlign=middle;resizable=0;points=[];autosize=1;strokeColor=none;fillColor=none;" parent="40" vertex="1">
                    <mxGeometry x="-37.46" y="178" width="154" height="66" as="geometry"/>
                </mxCell>
                <mxCell id="80" style="edgeStyle=none;html=1;fontSize=21;entryX=1;entryY=0.75;entryDx=0;entryDy=0;exitX=0;exitY=0.5;exitDx=0;exitDy=0;fontStyle=1;horizontal=1;labelBorderColor=none;fontColor=#0d0c0c;strokeWidth=5;" parent="1" source="41" target="43" edge="1">
                    <mxGeometry relative="1" as="geometry">
                        <mxPoint x="-130" y="210" as="sourcePoint"/>
                        <mxPoint x="-410" y="160" as="targetPoint"/>
                        <Array as="points"/>
                    </mxGeometry>
                </mxCell>
                <mxCell id="81" value="&lt;font style=&quot;font-size: 21px;&quot;&gt;*&lt;/font&gt;" style="edgeLabel;html=1;align=center;verticalAlign=middle;resizable=0;points=[];fontSize=21;fontStyle=1;horizontal=1;labelBorderColor=none;fontColor=#0d0c0c;" parent="80" vertex="1" connectable="0">
                    <mxGeometry x="0.7068" y="1" relative="1" as="geometry">
                        <mxPoint as="offset"/>
                    </mxGeometry>
                </mxCell>
                <mxCell id="82" value="1" style="edgeLabel;html=1;align=center;verticalAlign=middle;resizable=0;points=[];fontSize=21;fontStyle=1;horizontal=1;labelBorderColor=none;fontColor=#0d0c0c;" parent="80" vertex="1" connectable="0">
                    <mxGeometry x="-0.7133" y="4" relative="1" as="geometry">
                        <mxPoint as="offset"/>
                    </mxGeometry>
                </mxCell>
                <mxCell id="90" style="edgeStyle=none;html=1;fontSize=21;entryX=0;entryY=0.5;entryDx=0;entryDy=0;exitX=1;exitY=0.25;exitDx=0;exitDy=0;fontStyle=1;horizontal=1;labelBorderColor=none;fontColor=#0d0c0c;strokeWidth=5;" parent="1" source="41" target="85" edge="1">
                    <mxGeometry relative="1" as="geometry">
                        <mxPoint x="120" y="300" as="sourcePoint"/>
                        <mxPoint x="720" y="280" as="targetPoint"/>
                        <Array as="points">
                            <mxPoint x="154" y="286"/>
                            <mxPoint x="198" y="264"/>
                            <mxPoint x="220" y="264"/>
                        </Array>
                    </mxGeometry>
                </mxCell>
                <mxCell id="91" value="1" style="edgeLabel;html=1;align=center;verticalAlign=middle;resizable=0;points=[];fontSize=21;fontStyle=1;horizontal=1;labelBorderColor=none;fontColor=#0d0c0c;" parent="90" vertex="1" connectable="0">
                    <mxGeometry x="0.786" y="-3" relative="1" as="geometry">
                        <mxPoint y="4" as="offset"/>
                    </mxGeometry>
                </mxCell>
                <mxCell id="92" value="&lt;font style=&quot;font-size: 21px;&quot;&gt;1&lt;/font&gt;" style="edgeLabel;html=1;align=center;verticalAlign=middle;resizable=0;points=[];fontSize=21;fontStyle=1;horizontal=1;labelBorderColor=none;fontColor=#0d0c0c;" parent="90" vertex="1" connectable="0">
                    <mxGeometry x="-0.7122" y="-4" relative="1" as="geometry">
                        <mxPoint x="-46" y="-14" as="offset"/>
                    </mxGeometry>
                </mxCell>
                <mxCell id="97" style="edgeStyle=none;html=1;fontSize=21;entryX=0;entryY=0.5;entryDx=0;entryDy=0;exitX=0.5;exitY=1;exitDx=0;exitDy=0;fontStyle=1;horizontal=1;labelBorderColor=none;fontColor=#0d0c0c;strokeWidth=5;" parent="1" source="41" target="44" edge="1">
                    <mxGeometry relative="1" as="geometry">
                        <mxPoint x="210.1538461538462" y="760.0000000000002" as="targetPoint"/>
                        <mxPoint x="10" y="310" as="sourcePoint"/>
                        <Array as="points">
                            <mxPoint x="20" y="780"/>
                            <mxPoint x="220" y="780"/>
                        </Array>
                    </mxGeometry>
                </mxCell>
                <mxCell id="98" value="1" style="edgeLabel;html=1;align=center;verticalAlign=middle;resizable=0;points=[];fontSize=21;fontStyle=1;horizontal=1;labelBorderColor=none;fontColor=#0d0c0c;" parent="97" vertex="1" connectable="0">
                    <mxGeometry x="-0.7763" y="3" relative="1" as="geometry">
                        <mxPoint y="-38" as="offset"/>
                    </mxGeometry>
                </mxCell>
                <mxCell id="99" value="&lt;font style=&quot;font-size: 21px;&quot;&gt;*&lt;/font&gt;" style="edgeLabel;html=1;align=center;verticalAlign=middle;resizable=0;points=[];fontSize=21;fontStyle=1;horizontal=1;labelBorderColor=none;fontColor=#0d0c0c;" parent="97" vertex="1" connectable="0">
                    <mxGeometry x="0.7763" y="-1" relative="1" as="geometry">
                        <mxPoint x="48" as="offset"/>
                    </mxGeometry>
                </mxCell>
                <mxCell id="116" style="edgeStyle=none;html=1;exitX=1;exitY=0.75;exitDx=0;exitDy=0;entryX=0;entryY=0.25;entryDx=0;entryDy=0;fontStyle=1;horizontal=1;labelBorderColor=none;fontColor=#0d0c0c;fontSize=21;strokeWidth=5;" parent="1" source="41" target="42" edge="1">
                    <mxGeometry relative="1" as="geometry">
                        <Array as="points">
                            <mxPoint x="154" y="396"/>
                            <mxPoint x="198" y="374"/>
                            <mxPoint x="220" y="380"/>
                        </Array>
                    </mxGeometry>
                </mxCell>
                <mxCell id="117" value="&lt;span style=&quot;font-size: 21px;&quot;&gt;&lt;br style=&quot;font-size: 21px;&quot;&gt;&lt;/span&gt;" style="edgeLabel;html=1;align=center;verticalAlign=middle;resizable=0;points=[];fontStyle=1;horizontal=1;labelBorderColor=none;fontColor=#0d0c0c;fontSize=21;" parent="116" vertex="1" connectable="0">
                    <mxGeometry x="-0.8531" relative="1" as="geometry">
                        <mxPoint as="offset"/>
                    </mxGeometry>
                </mxCell>
                <mxCell id="119" value="&lt;font style=&quot;font-size: 21px;&quot;&gt;1&lt;/font&gt;" style="edgeLabel;html=1;align=center;verticalAlign=middle;resizable=0;points=[];fontSize=21;fontStyle=1;horizontal=1;labelBorderColor=none;fontColor=#0d0c0c;" parent="116" vertex="1" connectable="0">
                    <mxGeometry x="-0.8342" y="-7" relative="1" as="geometry">
                        <mxPoint x="-16" y="-15" as="offset"/>
                    </mxGeometry>
                </mxCell>
                <mxCell id="121" value="&lt;font style=&quot;font-size: 21px;&quot;&gt;*&lt;/font&gt;" style="edgeLabel;html=1;align=center;verticalAlign=middle;resizable=0;points=[];fontSize=21;fontStyle=1;horizontal=1;labelBorderColor=none;fontColor=#0d0c0c;" parent="116" vertex="1" connectable="0">
                    <mxGeometry x="0.843" y="-2" relative="1" as="geometry">
                        <mxPoint x="-1" as="offset"/>
                    </mxGeometry>
                </mxCell>
                <mxCell id="41" value="&lt;font style=&quot;font-size: 21px;&quot;&gt;Background&lt;/font&gt;" style="swimlane;whiteSpace=wrap;html=1;fontStyle=1;horizontal=1;labelBorderColor=none;fontColor=#0d0c0c;fontSize=21;strokeWidth=6;" parent="1" vertex="1">
                    <mxGeometry x="-80" y="230" width="200" height="200" as="geometry"/>
                </mxCell>
                <mxCell id="135" value="&lt;font style=&quot;font-size: 20px;&quot;&gt;+width&lt;br&gt;&amp;nbsp;+height&lt;br&gt;&amp;nbsp;+speed&lt;br&gt;&lt;/font&gt;" style="text;html=1;align=center;verticalAlign=middle;resizable=0;points=[];autosize=1;strokeColor=none;fillColor=none;" parent="41" vertex="1">
                    <mxGeometry y="30" width="88" height="88" as="geometry"/>
                </mxCell>
                <mxCell id="178" value="+remove()&lt;br&gt;&lt;div style=&quot;text-align: left;&quot;&gt;&lt;span style=&quot;background-color: initial;&quot;&gt;+update()&lt;/span&gt;&lt;/div&gt;" style="text;html=1;align=center;verticalAlign=middle;resizable=0;points=[];autosize=1;strokeColor=none;fillColor=none;" parent="41" vertex="1">
                    <mxGeometry x="6.269999999999996" y="155" width="66" height="44" as="geometry"/>
                </mxCell>
                <mxCell id="42" value="&lt;font style=&quot;font-size: 21px;&quot;&gt;Asteroid&lt;/font&gt;" style="swimlane;whiteSpace=wrap;html=1;fontStyle=1;horizontal=1;labelBorderColor=none;fontColor=#0d0c0c;fontSize=21;strokeWidth=6;" parent="1" vertex="1">
                    <mxGeometry x="760" y="330" width="200" height="200" as="geometry"/>
                </mxCell>
                <mxCell id="157" value="+speed&lt;br&gt;+size&lt;br&gt;+health&lt;br&gt;+damage" style="text;html=1;align=left;verticalAlign=middle;resizable=0;points=[];autosize=1;strokeColor=none;fillColor=none;fontSize=20;" parent="42" vertex="1">
                    <mxGeometry x="22" y="22" width="110" height="110" as="geometry"/>
                </mxCell>
                <mxCell id="176" value="+move()&lt;br&gt;&lt;div style=&quot;&quot;&gt;&lt;span style=&quot;background-color: initial;&quot;&gt;+update()&lt;/span&gt;&lt;/div&gt;" style="text;html=1;align=left;verticalAlign=middle;resizable=0;points=[];autosize=1;strokeColor=none;fillColor=none;" parent="42" vertex="1">
                    <mxGeometry x="22" y="156" width="66" height="44" as="geometry"/>
                </mxCell>
                <mxCell id="43" value="&lt;font style=&quot;font-size: 21px;&quot;&gt;Booster&lt;/font&gt;" style="swimlane;whiteSpace=wrap;html=1;fontStyle=1;horizontal=1;labelBorderColor=none;fontColor=#0d0c0c;fontSize=21;strokeWidth=6;" parent="1" vertex="1">
                    <mxGeometry x="-587.5" y="60" width="200" height="202" as="geometry"/>
                </mxCell>
                <mxCell id="156" value="+speed&lt;br&gt;&lt;div style=&quot;text-align: left;&quot;&gt;&lt;span style=&quot;background-color: initial;&quot;&gt;+size&lt;/span&gt;&lt;/div&gt;" style="text;html=1;align=center;verticalAlign=middle;resizable=0;points=[];autosize=1;strokeColor=none;fillColor=none;fontSize=20;" parent="43" vertex="1">
                    <mxGeometry y="27" width="88" height="66" as="geometry"/>
                </mxCell>
                <mxCell id="179" value="+apply()" style="text;html=1;align=center;verticalAlign=middle;resizable=0;points=[];autosize=1;strokeColor=none;fillColor=none;" parent="43" vertex="1">
                    <mxGeometry y="158" width="66" height="44" as="geometry"/>
                </mxCell>
                <mxCell id="31" value="&lt;font style=&quot;font-size: 21px;&quot;&gt;Rocket&lt;/font&gt;" style="swimlane;whiteSpace=wrap;html=1;fontStyle=1;horizontal=1;labelBorderColor=none;fontColor=#0d0c0c;fontSize=21;strokeWidth=6;" parent="1" vertex="1">
                    <mxGeometry x="550" y="1034" width="182" height="176" as="geometry"/>
                </mxCell>
                <mxCell id="169" value="+damage : 20" style="text;html=1;align=center;verticalAlign=middle;resizable=0;points=[];autosize=1;strokeColor=none;fillColor=none;fontSize=20;" parent="31" vertex="1">
                    <mxGeometry y="22" width="132" height="44" as="geometry"/>
                </mxCell>
                <mxCell id="172" value="+speed : 5" style="text;html=1;align=center;verticalAlign=middle;resizable=0;points=[];autosize=1;strokeColor=none;fillColor=none;fontSize=20;" parent="31" vertex="1">
                    <mxGeometry x="11" y="66" width="110" height="44" as="geometry"/>
                </mxCell>
                <mxCell id="44" value="&lt;font style=&quot;font-size: 21px;&quot;&gt;Bullet&lt;/font&gt;" style="swimlane;whiteSpace=wrap;html=1;startSize=23;fontStyle=1;horizontal=1;labelBorderColor=none;fontColor=#0d0c0c;fontSize=21;strokeWidth=6;" parent="1" vertex="1">
                    <mxGeometry x="350" y="680" width="200" height="200" as="geometry"/>
                </mxCell>
                <mxCell id="158" value="&lt;div style=&quot;text-align: left;&quot;&gt;&lt;span style=&quot;background-color: initial;&quot;&gt;+damage&lt;/span&gt;&lt;/div&gt;&lt;div style=&quot;text-align: left;&quot;&gt;&lt;span style=&quot;background-color: initial;&quot;&gt;+size&lt;/span&gt;&lt;/div&gt;&lt;div style=&quot;text-align: left;&quot;&gt;&lt;span style=&quot;background-color: initial;&quot;&gt;+speed&lt;/span&gt;&lt;/div&gt;" style="text;html=1;align=center;verticalAlign=middle;resizable=0;points=[];autosize=1;strokeColor=none;fillColor=none;fontSize=20;" parent="44" vertex="1">
                    <mxGeometry y="20" width="110" height="88" as="geometry"/>
                </mxCell>
                <mxCell id="177" value="+update()" style="text;html=1;align=center;verticalAlign=middle;resizable=0;points=[];autosize=1;strokeColor=none;fillColor=none;" parent="44" vertex="1">
                    <mxGeometry x="9" y="151.5" width="66" height="44" as="geometry"/>
                </mxCell>
                <mxCell id="46" value="" style="endArrow=none;html=1;exitX=0.5;exitY=0;exitDx=0;exitDy=0;entryX=0;entryY=1;entryDx=0;entryDy=0;fontStyle=1;horizontal=1;labelBorderColor=none;fontColor=#0d0c0c;fontSize=21;strokeWidth=5;" parent="1" source="43" target="45" edge="1">
                    <mxGeometry width="50" height="50" relative="1" as="geometry">
                        <mxPoint x="188" y="370" as="sourcePoint"/>
                        <mxPoint x="-30" y="-190" as="targetPoint"/>
                    </mxGeometry>
                </mxCell>
                <mxCell id="59" value="1&lt;br style=&quot;font-size: 21px;&quot;&gt;" style="edgeLabel;html=1;align=center;verticalAlign=middle;resizable=0;points=[];fontSize=21;fontStyle=1;horizontal=1;labelBorderColor=none;fontColor=#0d0c0c;" parent="46" vertex="1" connectable="0">
                    <mxGeometry x="0.7713" y="-1" relative="1" as="geometry">
                        <mxPoint x="21" y="-21" as="offset"/>
                    </mxGeometry>
                </mxCell>
                <mxCell id="78" value="&lt;font style=&quot;font-size: 21px;&quot;&gt;*&lt;/font&gt;" style="edgeLabel;html=1;align=center;verticalAlign=middle;resizable=0;points=[];fontSize=21;fontStyle=1;horizontal=1;labelBorderColor=none;fontColor=#0d0c0c;" parent="46" vertex="1" connectable="0">
                    <mxGeometry x="-0.6101" y="-2" relative="1" as="geometry">
                        <mxPoint x="-28" y="22" as="offset"/>
                    </mxGeometry>
                </mxCell>
                <mxCell id="58" value="" style="rhombus;whiteSpace=wrap;html=1;fontStyle=1;horizontal=1;labelBorderColor=none;fontColor=#0d0c0c;fontSize=21;strokeWidth=4;" parent="1" vertex="1">
                    <mxGeometry y="-182.75" width="40" height="94.75" as="geometry"/>
                </mxCell>
                <mxCell id="61" value="" style="endArrow=none;html=1;fontSize=21;entryX=0.5;entryY=1;entryDx=0;entryDy=0;exitX=0.5;exitY=0;exitDx=0;exitDy=0;fontStyle=1;horizontal=1;labelBorderColor=none;fontColor=#0d0c0c;strokeWidth=5;" parent="1" source="41" target="58" edge="1">
                    <mxGeometry width="50" height="50" relative="1" as="geometry">
                        <mxPoint x="280" y="320" as="sourcePoint"/>
                        <mxPoint x="310" y="260" as="targetPoint"/>
                    </mxGeometry>
                </mxCell>
                <mxCell id="62" value="1" style="edgeLabel;html=1;align=center;verticalAlign=middle;resizable=0;points=[];fontSize=21;fontStyle=1;horizontal=1;labelBorderColor=none;fontColor=#0d0c0c;" parent="61" vertex="1" connectable="0">
                    <mxGeometry x="0.7725" relative="1" as="geometry">
                        <mxPoint as="offset"/>
                    </mxGeometry>
                </mxCell>
                <mxCell id="63" value="1" style="edgeLabel;html=1;align=center;verticalAlign=middle;resizable=0;points=[];fontSize=21;fontStyle=1;horizontal=1;labelBorderColor=none;fontColor=#0d0c0c;" parent="61" vertex="1" connectable="0">
                    <mxGeometry x="-0.7795" y="-2" relative="1" as="geometry">
                        <mxPoint as="offset"/>
                    </mxGeometry>
                </mxCell>
                <mxCell id="67" value="" style="endArrow=none;html=1;fontSize=21;exitX=0;exitY=0.75;exitDx=0;exitDy=0;fontStyle=1;horizontal=1;labelBorderColor=none;fontColor=#0d0c0c;strokeWidth=5;" parent="1" source="42" target="71" edge="1">
                    <mxGeometry width="50" height="50" relative="1" as="geometry">
                        <mxPoint x="550" y="260" as="sourcePoint"/>
                        <mxPoint x="300" y="210" as="targetPoint"/>
                        <Array as="points">
                            <mxPoint x="200" y="480"/>
                            <mxPoint x="200" y="374"/>
                            <mxPoint x="198" y="264"/>
                        </Array>
                    </mxGeometry>
                </mxCell>
                <mxCell id="74" value="&lt;font style=&quot;font-size: 21px;&quot;&gt;1&lt;/font&gt;" style="edgeLabel;html=1;align=center;verticalAlign=middle;resizable=0;points=[];fontSize=21;fontStyle=1;horizontal=1;labelBorderColor=none;fontColor=#0d0c0c;" parent="67" vertex="1" connectable="0">
                    <mxGeometry x="0.7349" y="3" relative="1" as="geometry">
                        <mxPoint y="-116" as="offset"/>
                    </mxGeometry>
                </mxCell>
                <mxCell id="105" value="&lt;font style=&quot;font-size: 21px;&quot;&gt;*&lt;/font&gt;" style="edgeLabel;html=1;align=center;verticalAlign=middle;resizable=0;points=[];fontSize=21;fontStyle=1;horizontal=1;labelBorderColor=none;fontColor=#0d0c0c;" parent="67" vertex="1" connectable="0">
                    <mxGeometry x="-0.9407" y="-3" relative="1" as="geometry">
                        <mxPoint as="offset"/>
                    </mxGeometry>
                </mxCell>
                <mxCell id="71" value="" style="rhombus;whiteSpace=wrap;html=1;fontSize=21;rotation=90;fontStyle=1;horizontal=1;labelBorderColor=none;fontColor=#0d0c0c;strokeWidth=4;" parent="1" vertex="1">
                    <mxGeometry x="154" y="-158.53" width="96.72" height="46.32" as="geometry"/>
                </mxCell>
                <mxCell id="84" value="" style="rhombus;whiteSpace=wrap;html=1;rotation=-75;fontStyle=1;horizontal=1;labelBorderColor=none;fontColor=#0d0c0c;fontSize=21;strokeWidth=4;" parent="1" vertex="1">
                    <mxGeometry x="251.99" y="-304.55" width="34.49" height="115.12" as="geometry"/>
                </mxCell>
                <mxCell id="85" value="&lt;font style=&quot;font-size: 21px;&quot;&gt;Apollon&lt;/font&gt;" style="swimlane;whiteSpace=wrap;html=1;fontSize=21;fontStyle=1;horizontal=1;labelBorderColor=none;fontColor=#0d0c0c;strokeWidth=6;" parent="1" vertex="1">
                    <mxGeometry x="760" y="-132" width="200" height="200" as="geometry"/>
                </mxCell>
                <mxCell id="155" value="+size&lt;br&gt;&amp;nbsp; &amp;nbsp; +speed&lt;br&gt;&amp;nbsp; &amp;nbsp; +health&lt;br&gt;&amp;nbsp; &amp;nbsp; &amp;nbsp; +position" style="text;html=1;align=center;verticalAlign=middle;resizable=0;points=[];autosize=1;strokeColor=none;fillColor=none;fontSize=20;" parent="85" vertex="1">
                    <mxGeometry x="-28" y="19.79" width="132" height="110" as="geometry"/>
                </mxCell>
                <mxCell id="175" value="+move()&lt;br&gt;+update_bullets()&lt;br&gt;+shoot" style="text;html=1;align=left;verticalAlign=middle;resizable=0;points=[];autosize=1;strokeColor=none;fillColor=none;" parent="85" vertex="1">
                    <mxGeometry x="10" y="134" width="110" height="66" as="geometry"/>
                </mxCell>
                <mxCell id="87" value="" style="endArrow=none;html=1;fontSize=21;exitX=0.25;exitY=0;exitDx=0;exitDy=0;entryX=0;entryY=1;entryDx=0;entryDy=0;fontStyle=1;horizontal=1;labelBorderColor=none;fontColor=#0d0c0c;strokeWidth=5;" parent="1" source="85" target="84" edge="1">
                    <mxGeometry width="50" height="50" relative="1" as="geometry">
                        <mxPoint x="540" y="560" as="sourcePoint"/>
                        <mxPoint x="330" y="110" as="targetPoint"/>
                    </mxGeometry>
                </mxCell>
                <mxCell id="109" value="1" style="edgeLabel;html=1;align=center;verticalAlign=middle;resizable=0;points=[];fontSize=21;fontStyle=1;horizontal=1;labelBorderColor=none;fontColor=#0d0c0c;" parent="87" vertex="1" connectable="0">
                    <mxGeometry x="0.8736" y="1" relative="1" as="geometry">
                        <mxPoint x="1" as="offset"/>
                    </mxGeometry>
                </mxCell>
                <mxCell id="110" value="1" style="edgeLabel;html=1;align=center;verticalAlign=middle;resizable=0;points=[];fontSize=21;fontStyle=1;horizontal=1;labelBorderColor=none;fontColor=#0d0c0c;" parent="87" vertex="1" connectable="0">
                    <mxGeometry x="-0.8248" y="-4" relative="1" as="geometry">
                        <mxPoint as="offset"/>
                    </mxGeometry>
                </mxCell>
                <mxCell id="93" value="" style="rhombus;whiteSpace=wrap;html=1;fontStyle=1;horizontal=1;labelBorderColor=none;fontColor=#0d0c0c;fontSize=21;strokeWidth=4;" parent="1" vertex="1">
                    <mxGeometry x="120" y="-182.24" width="44" height="88" as="geometry"/>
                </mxCell>
                <mxCell id="94" value="" style="endArrow=none;html=1;fontSize=21;entryX=0.5;entryY=1;entryDx=0;entryDy=0;fontStyle=1;horizontal=1;labelBorderColor=none;fontColor=#0d0c0c;strokeWidth=5;" parent="1" target="93" edge="1">
                    <mxGeometry width="50" height="50" relative="1" as="geometry">
                        <mxPoint x="350" y="720" as="sourcePoint"/>
                        <mxPoint x="290" y="270" as="targetPoint"/>
                        <Array as="points">
                            <mxPoint x="290" y="720"/>
                            <mxPoint x="140" y="720"/>
                        </Array>
                    </mxGeometry>
                </mxCell>
                <mxCell id="95" value="&lt;font style=&quot;font-size: 21px;&quot;&gt;*&lt;/font&gt;" style="edgeLabel;html=1;align=center;verticalAlign=middle;resizable=0;points=[];fontSize=21;fontStyle=1;horizontal=1;labelBorderColor=none;fontColor=#0d0c0c;" parent="94" vertex="1" connectable="0">
                    <mxGeometry x="-0.8584" y="-2" relative="1" as="geometry">
                        <mxPoint x="39" y="2" as="offset"/>
                    </mxGeometry>
                </mxCell>
                <mxCell id="96" value="1" style="edgeLabel;html=1;align=center;verticalAlign=middle;resizable=0;points=[];fontSize=21;fontStyle=1;horizontal=1;labelBorderColor=none;fontColor=#0d0c0c;" parent="94" vertex="1" connectable="0">
                    <mxGeometry x="0.8793" y="-2" relative="1" as="geometry">
                        <mxPoint as="offset"/>
                    </mxGeometry>
                </mxCell>
                <mxCell id="122" value="" style="endArrow=block;endSize=16;endFill=0;html=1;rounded=0;sourcePerimeterSpacing=8;targetPerimeterSpacing=8;curved=1;exitX=0.5;exitY=0;exitDx=0;exitDy=0;entryX=0.75;entryY=1;entryDx=0;entryDy=0;strokeWidth=5;" parent="1" source="35" target="43" edge="1">
                    <mxGeometry width="160" relative="1" as="geometry">
                        <mxPoint x="-308" y="396" as="sourcePoint"/>
                        <mxPoint x="-148" y="396" as="targetPoint"/>
                    </mxGeometry>
                </mxCell>
                <mxCell id="123" value="" style="endArrow=block;endSize=16;endFill=0;html=1;rounded=0;sourcePerimeterSpacing=8;targetPerimeterSpacing=8;curved=1;exitX=0.5;exitY=0;exitDx=0;exitDy=0;entryX=0.5;entryY=1;entryDx=0;entryDy=0;strokeWidth=5;" parent="1" source="27" target="43" edge="1">
                    <mxGeometry width="160" relative="1" as="geometry">
                        <mxPoint x="-340" y="550" as="sourcePoint"/>
                        <mxPoint x="-534.9999999999998" y="260" as="targetPoint"/>
                    </mxGeometry>
                </mxCell>
                <mxCell id="124" value="" style="endArrow=block;endSize=16;endFill=0;html=1;rounded=0;sourcePerimeterSpacing=8;targetPerimeterSpacing=8;curved=1;exitX=0.5;exitY=0;exitDx=0;exitDy=0;entryX=0.25;entryY=1;entryDx=0;entryDy=0;strokeWidth=5;" parent="1" source="34" target="43" edge="1">
                    <mxGeometry width="160" relative="1" as="geometry">
                        <mxPoint x="-487.9999999999998" y="572" as="sourcePoint"/>
                        <mxPoint x="-487.9999999999998" y="282" as="targetPoint"/>
                    </mxGeometry>
                </mxCell>
                <mxCell id="29" value="&lt;font style=&quot;font-size: 21px;&quot;&gt;Laser&lt;/font&gt;" style="swimlane;whiteSpace=wrap;html=1;fontStyle=1;horizontal=1;labelBorderColor=none;fontColor=#0d0c0c;fontSize=21;strokeWidth=6;" parent="1" vertex="1">
                    <mxGeometry x="174" y="1034" width="176" height="176" as="geometry"/>
                </mxCell>
                <mxCell id="167" value="+damage : 10" style="text;html=1;align=center;verticalAlign=middle;resizable=0;points=[];autosize=1;strokeColor=none;fillColor=none;fontSize=20;" parent="29" vertex="1">
                    <mxGeometry y="22" width="132" height="44" as="geometry"/>
                </mxCell>
                <mxCell id="171" value="+speed : 10" style="text;html=1;align=center;verticalAlign=middle;resizable=0;points=[];autosize=1;strokeColor=none;fillColor=none;fontSize=20;" parent="29" vertex="1">
                    <mxGeometry y="66" width="132" height="44" as="geometry"/>
                </mxCell>
                <mxCell id="125" value="" style="endArrow=block;endSize=16;endFill=0;html=1;rounded=0;sourcePerimeterSpacing=8;targetPerimeterSpacing=8;curved=1;exitX=0.75;exitY=0;exitDx=0;exitDy=0;entryX=0.25;entryY=1;entryDx=0;entryDy=0;strokeWidth=5;" parent="1" source="29" target="44" edge="1">
                    <mxGeometry width="160" relative="1" as="geometry">
                        <mxPoint x="19" y="1060" as="sourcePoint"/>
                        <mxPoint x="-175.99999999999977" y="770" as="targetPoint"/>
                    </mxGeometry>
                </mxCell>
                <mxCell id="126" value="" style="endArrow=block;endSize=16;endFill=0;html=1;rounded=0;sourcePerimeterSpacing=8;targetPerimeterSpacing=8;curved=1;exitX=0.25;exitY=0;exitDx=0;exitDy=0;entryX=0.75;entryY=1;entryDx=0;entryDy=0;strokeWidth=5;" parent="1" source="31" target="44" edge="1">
                    <mxGeometry width="160" relative="1" as="geometry">
                        <mxPoint x="328" y="1056.0000000000005" as="sourcePoint"/>
                        <mxPoint x="422" y="902" as="targetPoint"/>
                    </mxGeometry>
                </mxCell>
                <mxCell id="45" value="" style="rhombus;whiteSpace=wrap;html=1;fontStyle=1;horizontal=1;labelBorderColor=none;fontColor=#0d0c0c;fontSize=21;strokeWidth=4;rotation=45;" parent="1" vertex="1">
                    <mxGeometry x="-66" y="-276.98" width="50.54" height="118.45" as="geometry"/>
                </mxCell>
                <mxCell id="140" value="" style="endArrow=none;html=1;rounded=0;fontSize=20;startSize=14;endSize=14;sourcePerimeterSpacing=8;targetPerimeterSpacing=8;curved=1;exitX=0;exitY=0.75;exitDx=0;exitDy=0;entryX=1;entryY=0.75;entryDx=0;entryDy=0;strokeWidth=4;" parent="1" source="40" target="40" edge="1">
                    <mxGeometry width="50" height="50" relative="1" as="geometry">
                        <mxPoint x="220" y="-148" as="sourcePoint"/>
                        <mxPoint x="220" y="-264" as="targetPoint"/>
                    </mxGeometry>
                </mxCell>
                <mxCell id="143" value="" style="endArrow=none;html=1;rounded=0;strokeWidth=4;fontSize=20;startSize=14;endSize=14;sourcePerimeterSpacing=8;targetPerimeterSpacing=8;curved=1;exitX=0.226;exitY=1.011;exitDx=0;exitDy=0;exitPerimeter=0;" parent="1" source="155" edge="1">
                    <mxGeometry width="50" height="50" relative="1" as="geometry">
                        <mxPoint x="594" y="-16" as="sourcePoint"/>
                        <mxPoint x="968" as="targetPoint"/>
                    </mxGeometry>
                </mxCell>
                <mxCell id="148" value="&lt;font style=&quot;font-size: 21px;&quot;&gt;Pisces&lt;/font&gt;" style="swimlane;whiteSpace=wrap;html=1;fontStyle=1;horizontal=1;labelBorderColor=none;fontColor=#0d0c0c;fontSize=21;strokeWidth=6;" parent="1" vertex="1">
                    <mxGeometry x="784.5" y="820" width="155" height="155" as="geometry"/>
                </mxCell>
                <mxCell id="164" value="+damage : 20" style="text;html=1;align=center;verticalAlign=middle;resizable=0;points=[];autosize=1;strokeColor=none;fillColor=none;fontSize=20;" parent="148" vertex="1">
                    <mxGeometry y="23" width="132" height="44" as="geometry"/>
                </mxCell>
                <mxCell id="168" value="+health : 20" style="text;html=1;align=center;verticalAlign=middle;resizable=0;points=[];autosize=1;strokeColor=none;fillColor=none;fontSize=20;" parent="148" vertex="1">
                    <mxGeometry y="55.5" width="132" height="44" as="geometry"/>
                </mxCell>
                <mxCell id="149" value="&lt;font style=&quot;font-size: 21px;&quot;&gt;Scorpion&lt;/font&gt;" style="swimlane;whiteSpace=wrap;html=1;fontStyle=1;horizontal=1;labelBorderColor=none;fontColor=#0d0c0c;fontSize=21;strokeWidth=6;" parent="1" vertex="1">
                    <mxGeometry x="572" y="820" width="150" height="148" as="geometry"/>
                </mxCell>
                <mxCell id="163" value="+damage : 30" style="text;html=1;align=center;verticalAlign=middle;resizable=0;points=[];autosize=1;strokeColor=none;fillColor=none;fontSize=20;" parent="149" vertex="1">
                    <mxGeometry y="23" width="132" height="44" as="geometry"/>
                </mxCell>
                <mxCell id="166" value="+health : 40" style="text;html=1;align=center;verticalAlign=middle;resizable=0;points=[];autosize=1;strokeColor=none;fillColor=none;fontSize=20;" parent="149" vertex="1">
                    <mxGeometry x="3" y="60" width="132" height="44" as="geometry"/>
                </mxCell>
                <mxCell id="150" value="&lt;font style=&quot;font-size: 21px;&quot;&gt;Taurus&lt;/font&gt;" style="swimlane;whiteSpace=wrap;html=1;fontStyle=1;horizontal=1;labelBorderColor=none;fontColor=#0d0c0c;fontSize=21;strokeWidth=6;" parent="1" vertex="1">
                    <mxGeometry x="1032" y="820" width="150" height="155" as="geometry"/>
                </mxCell>
                <mxCell id="165" value="+damage : 10" style="text;html=1;align=center;verticalAlign=middle;resizable=0;points=[];autosize=1;strokeColor=none;fillColor=none;fontSize=20;" parent="150" vertex="1">
                    <mxGeometry y="23" width="132" height="44" as="geometry"/>
                </mxCell>
                <mxCell id="170" value="+health : 10" style="text;html=1;align=center;verticalAlign=middle;resizable=0;points=[];autosize=1;strokeColor=none;fillColor=none;fontSize=20;" parent="150" vertex="1">
                    <mxGeometry y="67" width="132" height="44" as="geometry"/>
                </mxCell>
                <mxCell id="151" value="1" style="edgeLabel;html=1;align=center;verticalAlign=middle;resizable=0;points=[];fontSize=21;fontStyle=1;horizontal=1;labelBorderColor=none;fontColor=#0d0c0c;" parent="1" vertex="1" connectable="0">
                    <mxGeometry x="1243.6433565732314" y="586.6720205396186" as="geometry"/>
                </mxCell>
                <mxCell id="152" value="" style="endArrow=block;endSize=16;endFill=0;html=1;rounded=0;sourcePerimeterSpacing=8;targetPerimeterSpacing=8;curved=1;exitX=0.5;exitY=0;exitDx=0;exitDy=0;entryX=0.75;entryY=1;entryDx=0;entryDy=0;strokeWidth=5;" parent="1" source="150" edge="1">
                    <mxGeometry width="160" relative="1" as="geometry">
                        <mxPoint x="1064" y="666" as="sourcePoint"/>
                        <mxPoint x="912" y="530" as="targetPoint"/>
                    </mxGeometry>
                </mxCell>
                <mxCell id="153" value="" style="endArrow=block;endSize=16;endFill=0;html=1;rounded=0;sourcePerimeterSpacing=8;targetPerimeterSpacing=8;curved=1;exitX=0.5;exitY=0;exitDx=0;exitDy=0;entryX=0.5;entryY=1;entryDx=0;entryDy=0;strokeWidth=5;" parent="1" source="148" edge="1">
                    <mxGeometry width="160" relative="1" as="geometry">
                        <mxPoint x="1032" y="820" as="sourcePoint"/>
                        <mxPoint x="862" y="530" as="targetPoint"/>
                    </mxGeometry>
                </mxCell>
                <mxCell id="154" value="" style="endArrow=block;endSize=16;endFill=0;html=1;rounded=0;sourcePerimeterSpacing=8;targetPerimeterSpacing=8;curved=1;exitX=0.5;exitY=0;exitDx=0;exitDy=0;entryX=0.25;entryY=1;entryDx=0;entryDy=0;strokeWidth=5;" parent="1" source="149" edge="1">
                    <mxGeometry width="160" relative="1" as="geometry">
                        <mxPoint x="884.0000000000002" y="842" as="sourcePoint"/>
                        <mxPoint x="812" y="530" as="targetPoint"/>
                    </mxGeometry>
                </mxCell>
                <mxCell id="159" value="" style="endArrow=none;html=1;rounded=0;strokeWidth=4;fontSize=20;startSize=14;endSize=14;sourcePerimeterSpacing=8;targetPerimeterSpacing=8;curved=1;exitX=0;exitY=0.75;exitDx=0;exitDy=0;entryX=1;entryY=0.75;entryDx=0;entryDy=0;" parent="1" source="44" target="44" edge="1">
                    <mxGeometry width="50" height="50" relative="1" as="geometry">
                        <mxPoint x="418" y="842" as="sourcePoint"/>
                        <mxPoint x="468" y="792" as="targetPoint"/>
                    </mxGeometry>
                </mxCell>
                <mxCell id="160" value="" style="endArrow=none;html=1;rounded=0;strokeWidth=4;fontSize=20;startSize=14;endSize=14;sourcePerimeterSpacing=8;targetPerimeterSpacing=8;curved=1;exitX=0;exitY=0.75;exitDx=0;exitDy=0;entryX=1;entryY=0.75;entryDx=0;entryDy=0;" parent="1" source="42" target="42" edge="1">
                    <mxGeometry width="50" height="50" relative="1" as="geometry">
                        <mxPoint x="616" y="732" as="sourcePoint"/>
                        <mxPoint x="666" y="682" as="targetPoint"/>
                    </mxGeometry>
                </mxCell>
                <mxCell id="161" value="" style="endArrow=none;html=1;rounded=0;strokeWidth=4;fontSize=20;startSize=14;endSize=14;sourcePerimeterSpacing=8;targetPerimeterSpacing=8;curved=1;exitX=0;exitY=0.75;exitDx=0;exitDy=0;entryX=1;entryY=0.75;entryDx=0;entryDy=0;" parent="1" source="41" target="41" edge="1">
                    <mxGeometry width="50" height="50" relative="1" as="geometry">
                        <mxPoint x="-44" y="578" as="sourcePoint"/>
                        <mxPoint x="6" y="528" as="targetPoint"/>
                    </mxGeometry>
                </mxCell>
                <mxCell id="162" value="" style="endArrow=none;html=1;rounded=0;strokeWidth=4;fontSize=20;startSize=14;endSize=14;sourcePerimeterSpacing=8;targetPerimeterSpacing=8;curved=1;exitX=0;exitY=0.75;exitDx=0;exitDy=0;entryX=1;entryY=0.75;entryDx=0;entryDy=0;" parent="1" source="43" target="43" edge="1">
                    <mxGeometry width="50" height="50" relative="1" as="geometry">
                        <mxPoint x="-242" y="358" as="sourcePoint"/>
                        <mxPoint x="-192" y="308" as="targetPoint"/>
                    </mxGeometry>
                </mxCell>
            </root>
        </mxGraphModel>
    </diagram>
</mxfile>